<?xml version="1.0" encoding="iso-8859-1"?>
<!-- Uploaded to: SVG Repo, www.svgrepo.com, Generator: SVG Repo Mixer Tools -->
<svg fill="#168008" height="800px" width="800px" version="1.1" id="Layer_1" xmlns="http://www.w3.org/2000/svg" xmlns:xlink="http://www.w3.org/1999/xlink" 
	 viewBox="0 0 512 512" xml:space="preserve">
<g>
	<g>
		<g>
			<path d="M255.997,159.418c36.473,0,66.145-29.673,66.145-66.145s-29.673-66.145-66.145-66.145
				c-36.473,0-66.145,29.673-66.145,66.145C189.852,129.744,219.524,159.418,255.997,159.418z M255.997,59.059
				c18.864,0,34.212,15.347,34.212,34.212s-15.347,34.212-34.212,34.212s-34.212-15.347-34.212-34.212
				C221.785,74.407,237.133,59.059,255.997,59.059z"/>
			<path d="M149.327,318.735h213.341c8.818,0,15.967-7.149,15.967-15.967c0-67.623-55.015-122.637-122.637-122.637
				S133.36,235.145,133.36,302.768C133.36,311.586,140.509,318.735,149.327,318.735z M345.293,286.801H166.701
				C184.387,187.61,327.625,187.71,345.293,286.801z"/>
			<path d="M320.438,380.023l-34.632-5.033l-15.488-31.381c-5.845-11.843-22.788-11.851-28.636,0l-15.488,31.381l-34.632,5.033
				c-13.069,1.899-18.311,18.011-8.849,27.235l25.059,24.427l-5.916,34.492c-2.233,13.016,11.471,22.982,23.167,16.832
				l30.976-16.284l30.976,16.284c11.625,6.112,25.415-3.727,23.167-16.832l-5.916-34.492l25.059-24.427
				C338.744,398.039,333.515,381.924,320.438,380.023z M273.2,439.688c-18.505-9.727-17.033-9.129-34.398,0
				c3.329-19.407,4.382-18.082-10.63-32.715c19.495-2.833,18.551-1.42,27.829-20.219c9.251,18.745,8.308,17.383,27.829,20.219
				C268.861,421.563,269.865,420.246,273.2,439.688z"/>
			<path d="M142.55,380.023l-34.632-5.033L92.43,343.609c-5.845-11.843-22.788-11.851-28.636,0l-15.487,31.381l-34.632,5.033
				c-13.069,1.899-18.311,18.011-8.849,27.234l25.06,24.427l-5.916,34.492c-2.233,13.016,11.471,22.982,23.167,16.832l30.976-16.285
				l30.976,16.285c11.624,6.112,25.415-3.727,23.167-16.832l-5.916-34.492l25.059-24.427
				C160.856,398.039,155.627,381.924,142.55,380.023z M95.312,439.688c-18.073-9.501-16.325-9.501-34.398,0
				c3.33-19.408,4.382-18.081-10.63-32.715c19.494-2.833,18.551-1.419,27.829-20.219c9.251,18.745,8.308,17.382,27.829,20.219
				C91.842,420.717,91.767,419.026,95.312,439.688z"/>
			<path d="M498.325,380.023l-34.632-5.033l-15.487-31.381c-5.845-11.843-22.788-11.851-28.636,0l-15.488,31.381l-34.632,5.033
				c-13.069,1.899-18.311,18.011-8.849,27.235l25.061,24.427l-5.916,34.492c-2.233,13.016,11.47,22.981,23.167,16.832l30.976-16.285
				l30.976,16.285c11.625,6.112,25.415-3.727,23.167-16.832l-5.916-34.492l25.059-24.427
				C516.63,398.039,511.402,381.924,498.325,380.023z M451.088,439.688c-18.507-9.729-16.943-9.177-34.398,0
				c3.329-19.407,4.382-18.082-10.63-32.715c20.686-3.006,19.1-2.53,27.829-20.219c9.25,18.745,8.307,17.382,27.829,20.219
				C446.748,421.564,447.753,420.247,451.088,439.688z"/>
		</g>
	</g>
</g>
</svg>